<svg viewBox="0 0 400 300" xmlns="http://www.w3.org/2000/svg">
  <!-- Louisiana with distinctive boot shape -->
  <path d="M 120,140 L 200,130 L 260,140 L 300,160 L 320,185 L 325,210 L 320,235 L 310,255 L 295,270 L 275,280 L 250,285 L 225,280 L 200,270 L 180,255 L 165,235 L 155,210 L 150,185 L 155,160 L 170,140 L 190,125 L 215,115 L 240,120 L 260,130 L 275,145 L 285,165 L 290,185 L 285,205 L 275,220 L 260,230 L 240,235 L 220,230 L 205,220 L 195,205 L 190,185 L 195,165 L 205,150 L 220,140 L 240,135 L 260,140 L 275,150 L 285,165 L 290,185 L 285,205 L 275,220 L 260,230 L 240,235 L 220,230 L 205,220 L 195,205 L 190,185 L 195,165 L 205,150 L 220,140 L 240,135 L 260,140 L 275,150 L 285,165 L 290,185 L 285,205 L 275,220 L 260,230 L 240,235 L 220,230 L 205,220 L 195,205 L 190,185 L 195,165 L 205,150 L 220,140 L 240,135 L 260,140 L 275,150 L 285,165 L 290,185 L 285,205 L 275,220 L 260,230 L 240,235 L 220,230 L 205,220 L 195,205 L 190,185 L 195,165 L 205,150 L 220,140 L 240,135 L 260,140 L 120,140 Z" 
        fill="#2563eb" 
        stroke="#1e40af" 
        stroke-width="2" 
        stroke-linejoin="round"/>
</svg>





